# xmcd CD database file
#
# Track frame offsets:
#	150
#	29100
#	58928
#	83986
#	99780
#	106418
#	130668
#	151139
#	172841
#	188208
#
# Disc length: 2999 seconds
#
# Revision: 2
# Processed by: cddbd v1.5.1PL0 Copyright (c) Steve Scherf et al.
# Submitted via: CDex 1.51
#
DISCID=790bb50a
DTITLE=Mr. Projectile - Sinking
DYEAR=2004
DGENRE=General Electronic
TTITLE0=You Need
TTITLE1=Underneath The Evening
TTITLE2=Resistance Is Fertile
TTITLE3=Acting Right
TTITLE4=Tiny Distances
TTITLE5=I Am Back
TTITLE6=Slow Rewards
TTITLE7=Sinking
TTITLE8=The Inevitable Haunting
TTITLE9=Love Here
EXTD=YEAR: 2004
EXTT0=
EXTT1=
EXTT2=
EXTT3=
EXTT4=
EXTT5=
EXTT6=
EXTT7=
EXTT8=
EXTT9=
PLAYORDER=
